<svg xmlns="http://www.w3.org/2000/svg" version="1.1" xmlns:xlink="http://www.w3.org/1999/xlink" xmlns:svgjs="http://svgjs.dev/svgjs" width="2000" height="681" viewBox="0 0 2000 681"><g transform="matrix(1,0,0,1,-1.2121212121212466,-2.3568070185681904)"><svg viewBox="0 0 396 135" data-background-color="#000000" preserveAspectRatio="xMidYMid meet" height="681" width="2000" xmlns="http://www.w3.org/2000/svg" xmlns:xlink="http://www.w3.org/1999/xlink"><g id="tight-bounds" transform="matrix(1,0,0,1,0.2400000000000091,0.4672084398042671)"><svg viewBox="0 0 395.52 134.0655831203915" height="134.0655831203915" width="395.52"><rect width="395.52" height="134.0655831203915" fill="#ffffff" mask="url(#1f812692-bb2f-4b68-b243-69db2cd15a44)" data-fill-palette-color="tertiary"></rect><g><svg viewBox="0 0 642.391197424355 217.74512154657842" height="134.0655831203915" width="395.52"><g transform="matrix(1,0,0,1,246.87119742435502,30.093573238347673)"><svg viewBox="0 0 395.52 157.55797506988307" height="157.55797506988307" width="395.52"><g id="textblocktransform"><svg viewBox="0 0 395.52 157.55797506988307" height="157.55797506988307" width="395.52" id="textblock"><g><rect width="395.52" height="115.4122179665532" fill="none" stroke-width="9.018103199999999" stroke="#ffffff" data-fill-palette-color="none" data-stroke-palette-color="tertiary"></rect><rect width="395.52" height="42.14575710332988" y="115.4122179665532" fill="#ffffff" data-fill-palette-color="tertiary"></rect></g><g><svg viewBox="0 0 395.52 115.4122179665532" height="115.4122179665532" width="395.52"><g transform="matrix(1,0,0,1,23.607599999999998,23.607599999999998)"><svg width="348.3048" viewBox="2.13 -32.5 168.91 33.08" height="68.1970179665532" data-palette-color="url(#2e67a72b-df5e-468c-900e-6c9bfe8c15f0)"></svg></g></svg></g></svg></g></svg></g><g><svg viewBox="0 0 235.06739742435502 217.74512154657842" height="217.74512154657842" width="235.06739742435502"><g><svg xmlns="http://www.w3.org/2000/svg" xmlns:xlink="http://www.w3.org/1999/xlink" version="1.1" x="0" y="0" viewBox="2.142 5.669 95.71583534677731 88.66247055048619" enable-background="new 0 0 100 100" xml:space="preserve" height="217.74512154657842" width="235.06739742435502" class="icon-icon-0" data-fill-palette-color="accent" id="icon-0"></svg></g></svg></g></svg></g><defs></defs><mask id="1fb2642f-a05a-4719-92dd-176528825544"><g id="SvgjsG1057"><svg viewBox="0 0 395.52 134.0655831203915" height="134.0655831203915" width="395.52"><g><svg viewBox="0 0 642.391197424355 217.74512154657842" height="134.0655831203915" width="395.52"><g transform="matrix(1,0,0,1,246.87119742435502,30.093573238347673)"><svg viewBox="0 0 395.52 157.55797506988307" height="157.55797506988307" width="395.52"><g id="SvgjsG1056"><svg viewBox="0 0 395.52 157.55797506988307" height="157.55797506988307" width="395.52" id="SvgjsSvg1055"><g><rect width="395.52" height="115.4122179665532" fill="black" stroke-width="9.018103199999999" stroke="#ffffff" data-stroke-palette-color="tertiary"></rect><rect width="395.52" height="42.14575710332988" y="115.4122179665532" fill="black"></rect></g><g><svg viewBox="0 0 395.52 115.4122179665532" height="115.4122179665532" width="395.52"><g transform="matrix(1,0,0,1,23.607599999999998,23.607599999999998)"><svg width="348.3048" viewBox="2.13 -32.5 168.91 33.08" height="68.1970179665532" data-palette-color="url(#2e67a72b-df5e-468c-900e-6c9bfe8c15f0)"><path d="M12.68 0.58L12.68 0.58Q10.38 0.58 8.46 0.2 6.55-0.18 5.05-0.73 3.55-1.28 2.55-1.83L2.55-1.83 2.13-5.95Q4.05-4.8 6.66-3.94 9.28-3.08 12.35-3.08L12.35-3.08Q16.05-3.08 17.82-4.39 19.6-5.7 19.6-8.33L19.6-8.33 19.6-8.72Q19.6-10.45 18.9-11.55 18.2-12.65 16.54-13.4 14.88-14.15 12.03-14.8L12.03-14.8Q8.43-15.65 6.26-16.81 4.1-17.98 3.14-19.73 2.18-21.48 2.18-24.08L2.18-24.08 2.18-24.3Q2.18-28.23 4.75-30.36 7.33-32.5 12.55-32.5L12.55-32.5Q15.98-32.5 18.39-31.8 20.8-31.1 22.33-30.25L22.33-30.25 22.7-26.45Q20.93-27.5 18.56-28.24 16.2-28.98 13.15-28.98L13.15-28.98Q10.73-28.98 9.22-28.4 7.73-27.83 7.05-26.75 6.38-25.68 6.38-24.15L6.38-24.15 6.38-24.05Q6.38-22.5 7.04-21.4 7.7-20.3 9.36-19.5 11.03-18.7 14.1-17.95L14.1-17.95Q17.63-17.13 19.75-16.05 21.88-14.98 22.84-13.25 23.8-11.53 23.8-8.75L23.8-8.75 23.8-8.22Q23.8-3.9 21.01-1.66 18.23 0.58 12.68 0.58ZM38.8 0.55L38.8 0.55Q33.55 0.55 30.98-2.29 28.42-5.13 28.42-10.33L28.42-10.33 28.42-14.13Q28.42-19.35 31-22.16 33.57-24.98 38.8-24.98L38.8-24.98Q40.35-24.98 41.62-24.69 42.9-24.4 43.91-23.94 44.92-23.48 45.62-22.98L45.62-22.98 45.97-19.45Q44.8-20.35 43.19-20.98 41.57-21.6 39.4-21.6L39.4-21.6Q35.9-21.6 34.19-19.66 32.47-17.73 32.47-14.03L32.47-14.03 32.47-10.43Q32.47-6.8 34.19-4.85 35.9-2.9 39.4-2.9L39.4-2.9Q41.65-2.9 43.28-3.53 44.92-4.15 46.2-5.05L46.2-5.05 45.82-1.48Q44.72-0.73 42.95-0.09 41.17 0.55 38.8 0.55ZM69.59-15.8L69.59 0 65.57 0 65.75-5.93 65.59-6.55 65.59-14.33 65.62-15.75Q65.62-18.73 64.11-20.15 62.59-21.58 59.32-21.58L59.32-21.58Q56.7-21.58 54.51-20.83 52.32-20.08 50.62-19.07L50.62-19.07 51-22.53Q51.95-23.1 53.26-23.66 54.57-24.23 56.26-24.6 57.95-24.98 59.97-24.98L59.97-24.98Q62.59-24.98 64.43-24.34 66.27-23.7 67.41-22.5 68.55-21.3 69.07-19.6 69.59-17.9 69.59-15.8L69.59-15.8ZM57.17 0.53L57.17 0.53Q53.55 0.53 51.61-1.24 49.67-3 49.67-6.28L49.67-6.28 49.67-7Q49.67-10.38 51.76-12.04 53.84-13.7 58.4-14.35L58.4-14.35 66.12-15.45 66.34-12.5 58.9-11.43Q56.09-11.03 54.9-10.06 53.7-9.1 53.7-7.23L53.7-7.23 53.7-6.83Q53.7-4.9 54.88-3.88 56.07-2.85 58.45-2.85L58.45-2.85Q60.55-2.85 62.05-3.58 63.55-4.3 64.47-5.53 65.4-6.75 65.72-8.25L65.72-8.25 66.34-5.5 65.57-5.5Q65.22-3.9 64.26-2.53 63.3-1.15 61.57-0.31 59.84 0.53 57.17 0.53ZM96.17-15.63L96.17 0 92.12 0 92.12-15.18Q92.12-17.15 91.58-18.57 91.04-20 89.83-20.79 88.62-21.58 86.52-21.58L86.52-21.58Q84.59-21.58 83.18-20.85 81.77-20.13 80.89-18.89 80.02-17.65 79.67-16.07L79.67-16.07 78.94-18.95 79.82-18.95Q80.22-20.6 81.22-21.96 82.22-23.33 83.91-24.14 85.59-24.95 88.04-24.95L88.04-24.95Q90.94-24.95 92.73-23.85 94.52-22.75 95.34-20.69 96.17-18.63 96.17-15.63L96.17-15.63ZM79.84-18.32L79.84 0 75.79 0 75.79-24.4 79.84-24.4 79.67-18.55 79.84-18.32ZM122.82-15.63L122.82 0 118.77 0 118.77-15.18Q118.77-17.15 118.23-18.57 117.69-20 116.48-20.79 115.27-21.58 113.17-21.58L113.17-21.58Q111.24-21.58 109.83-20.85 108.42-20.13 107.54-18.89 106.67-17.65 106.32-16.07L106.32-16.07 105.59-18.95 106.47-18.95Q106.87-20.6 107.87-21.96 108.87-23.33 110.55-24.14 112.24-24.95 114.69-24.95L114.69-24.95Q117.59-24.95 119.38-23.85 121.17-22.75 121.99-20.69 122.82-18.63 122.82-15.63L122.82-15.63ZM106.49-18.32L106.49 0 102.44 0 102.44-24.4 106.49-24.4 106.32-18.55 106.49-18.32ZM143.06-14.78L143.06-11.45 128.86-11.45 128.86-14.78 143.06-14.78ZM158.06-14.15L149.99 0 145.39 0 155.26-17.03 155.26-16.07 145.61-31.95 150.14-31.95 158.09-18.68 158.39-18.68 166.31-31.95 170.84-31.95 161.21-16.07 161.21-17.03 171.04 0 166.46 0 158.39-14.15 158.06-14.15Z" opacity="1" transform="matrix(1,0,0,1,0,0)" fill="white" class="wordmark-text-0" id="SvgjsPath1054"></path></svg></g></svg></g></svg></g></svg></g><g><svg viewBox="0 0 235.06739742435502 217.74512154657842" height="217.74512154657842" width="235.06739742435502"><g><svg xmlns="http://www.w3.org/2000/svg" xmlns:xlink="http://www.w3.org/1999/xlink" version="1.1" x="0" y="0" viewBox="2.142 5.669 95.71583534677731 88.66247055048619" enable-background="new 0 0 100 100" xml:space="preserve" height="217.74512154657842" width="235.06739742435502" class="icon-icon-0" data-fill-palette-color="accent" id="SvgjsSvg1053"><g fill="black"><path fill="black" d="M24.039 5.669C18.492 13.357 2.142 18.904 2.142 18.904V27.322L8.2 31.142V22.587L29.505 9.14z"></path><path fill="black" d="M33.171 65.943S33.755 56.503 29.083 51.831C29.084 51.832 26.65 61.077 33.171 65.943"></path><path fill="black" d="M97.761 50.907C97.297 48.939 96.134 47.407 91.435 44.727L31.663 10.932 10.657 24.533 10.673 24.543V33.097S36.366 44.516 35.458 63.462 34.031 86.819 34.031 86.819 33.642 88.376 36.756 90.063 45.969 97.2 52.587 92.399C56.869 89.285 56.091 89.934 56.35 87.338 56.577 85.066 57.103 68.268 53.136 57.852 59.457 61.513 70.858 68.102 73.207 69.37 74.48 70.057 75.648 70.282 76.632 70.282 78.441 70.282 79.625 69.523 79.673 69.49 80.331 69.114 93.683 61.447 94.743 60.834 97.857 59.034 97.776 56.58 97.825 55.757L97.856 52.044A5.2 5.2 0 0 0 97.761 50.907M15.037 26.528L31.971 15.239 90.462 48.231C94.744 50.859 92.191 52.97 90.997 53.778L83.746 58.06C82.942 58.604 79.191 60.258 78.265 60.549 75.961 61.272 73.724 60.653 70.105 58.531z"></path><path fill="black" d="M53.771 30.129C51.997 29.203 33.82 18.71 33.82 18.71S32.338 17.867 30.933 18.807C29.526 19.749 21.12 25.214 21.12 25.214S19.368 26.528 20.974 27.501C21.906 28.066 41.168 39.504 41.168 39.504S42.422 39.94 43.675 39.231 53.382 32.659 53.382 32.659 56.009 31.297 53.771 30.129"></path><path fill="black" d="M48.157 39.67C47.576 39.799 44.754 41.538 46.111 42.7S49.85 41.904 49.85 41.904C49.075 41.711 48.157 39.67 48.157 39.67"></path><path fill="black" d="M54.663 42.968C51.957 42.924 50.807 42.253 50.807 42.253 50.4 42.453 48.134 43.727 50.149 44.669S54.663 42.968 54.663 42.968"></path><path fill="black" d="M55.281 35.108S57.8 34.913 59.137 35.823C59.137 35.823 61.571 34.537 59.866 33.233 57.408 31.354 54.995 35.424 55.281 35.108"></path><path fill="black" d="M59.963 36.139S61.265 37.136 61.391 38.225C61.391 38.225 64.762 37.035 63.954 35.324 63.146 33.612 59.988 35.377 59.963 36.139"></path><path fill="black" d="M55.399 36.047C52.48 35.948 49.765 37.741 49.996 39.585S53.356 42.072 55.229 41.928C56.639 41.819 59.633 40.476 59.279 38.498 58.885 36.294 55.399 36.047 55.399 36.047"></path><path fill="black" d="M56.453 46.057C55.307 46.036 54.252 46.756 54.354 47.478S55.688 48.434 56.422 48.366C56.975 48.315 58.142 47.769 57.991 46.995 57.823 46.133 56.453 46.057 56.453 46.057"></path><path fill="black" d="M60.564 45.848C61.117 45.797 62.284 45.251 62.133 44.477 61.965 43.614 60.595 43.538 60.595 43.538 59.449 43.517 58.394 44.237 58.496 44.959S59.83 45.916 60.564 45.848"></path><path fill="black" d="M62.638 42.442C62.74 43.164 63.972 43.398 64.706 43.33 65.259 43.279 66.426 42.733 66.275 41.959 66.107 41.096 64.737 41.02 64.737 41.02 63.591 41 62.536 41.72 62.638 42.442"></path><path fill="black" d="M68.85 40.903C69.403 40.852 70.57 40.306 70.419 39.532 70.251 38.669 68.881 38.593 68.881 38.593 67.735 38.572 66.68 39.292 66.782 40.014S68.116 40.971 68.85 40.903"></path><path fill="black" d="M60.668 48.264C59.522 48.243 58.467 48.963 58.569 49.685S59.903 50.641 60.637 50.573C61.19 50.522 62.357 49.976 62.206 49.202 62.038 48.34 60.668 48.264 60.668 48.264"></path><path fill="black" d="M64.599 48.149C65.152 48.098 66.319 47.552 66.168 46.778 66 45.916 64.63 45.84 64.63 45.84 63.484 45.819 62.429 46.539 62.531 47.261S63.865 48.217 64.599 48.149"></path><path fill="black" d="M68.743 45.722C69.296 45.671 70.463 45.125 70.312 44.351 70.144 43.488 68.774 43.412 68.774 43.412 67.628 43.391 66.573 44.111 66.675 44.833S68.008 45.79 68.743 45.722"></path><path fill="black" d="M72.704 43.298C73.257 43.247 74.424 42.701 74.273 41.927 74.105 41.064 72.735 40.988 72.735 40.988 71.589 40.967 70.534 41.687 70.636 42.409S71.97 43.366 72.704 43.298"></path><path fill="black" d="M68.723 50.358C69.276 50.307 70.443 49.761 70.292 48.987 70.124 48.124 68.754 48.048 68.754 48.048 67.608 48.027 66.553 48.747 66.655 49.469S67.989 50.426 68.723 50.358"></path><path fill="black" d="M70.871 51.768C70.973 52.49 72.205 52.724 72.939 52.656 73.492 52.605 74.659 52.059 74.508 51.285 74.34 50.422 72.97 50.346 72.97 50.346 71.824 50.326 70.769 51.046 70.871 51.768"></path><path fill="black" d="M72.685 47.934C73.238 47.883 74.405 47.337 74.254 46.563 74.086 45.7 72.716 45.624 72.716 45.624 71.57 45.603 70.515 46.323 70.617 47.045S71.951 48.002 72.685 47.934"></path><path fill="black" d="M76.738 45.508C77.291 45.457 78.458 44.911 78.307 44.137 78.139 43.274 76.769 43.198 76.769 43.198 75.623 43.177 74.568 43.897 74.67 44.619S76.004 45.576 76.738 45.508"></path><path fill="black" d="M72.503 57.378C72.605 58.1 73.837 58.334 74.571 58.266 75.124 58.215 76.291 57.669 76.14 56.895 75.972 56.032 74.602 55.956 74.602 55.956 73.456 55.936 72.401 56.656 72.503 57.378"></path><path fill="black" d="M78.658 53.713C77.512 53.692 76.457 54.412 76.559 55.134S77.893 56.09 78.627 56.022C79.18 55.971 80.347 55.425 80.196 54.651 80.028 53.789 78.658 53.713 78.658 53.713"></path><path fill="black" d="M80.699 52.526C80.801 53.248 82.033 53.482 82.767 53.414 83.32 53.363 84.487 52.817 84.336 52.043 84.168 51.18 82.798 51.104 82.798 51.104 81.652 51.083 80.597 51.804 80.699 52.526"></path><path fill="black" d="M86.731 51.08C87.284 51.029 88.451 50.483 88.3 49.709 88.132 48.846 86.762 48.77 86.762 48.77 85.616 48.749 84.561 49.469 84.663 50.191S85.997 51.148 86.731 51.08"></path><path fill="black" d="M69.975 53.535C69.212 53.018 66.458 51.265 66.458 51.265S64.573 50.177 63.649 51.15C62.858 51.982 64.219 53.254 64.476 53.34L67.25 55.092S69.176 56.622 70.218 55.579C71.042 54.755 70.724 54.042 69.975 53.535"></path><path fill="black" d="M75.124 49.712C76.033 50.755 77.075 50.2 78.007 49.679S81.526 47.406 81.526 47.406 82.765 46.678 81.86 45.85C80.979 45.044 79.725 45.488 79.133 45.878S75.422 48.25 75.422 48.25 74.474 48.967 75.124 49.712"></path></g></svg></g></svg></g></svg></g><defs><mask></mask></defs></svg><rect width="395.52" height="134.0655831203915" fill="black" stroke="none" visibility="hidden"></rect></g></mask><linearGradient x1="0" x2="1" y1="0.548" y2="0.55" id="2e67a72b-df5e-468c-900e-6c9bfe8c15f0"><stop stop-color="#ff6cab" offset="0"></stop><stop stop-color="#7366ff" offset="1"></stop></linearGradient><rect width="395.52" height="134.0655831203915" fill="#ffffff" mask="url(#1fb2642f-a05a-4719-92dd-176528825544)" data-fill-palette-color="primary"></rect><mask id="f934331d-8750-4532-9581-ab57f4fb0abe"><g id="SvgjsG1076"><svg viewBox="0 0 395.52 134.0655831203915" height="134.0655831203915" width="395.52"><g><svg viewBox="0 0 642.391197424355 217.74512154657842" height="134.0655831203915" width="395.52"><g transform="matrix(1,0,0,1,246.87119742435502,30.093573238347673)"><svg viewBox="0 0 395.52 157.55797506988307" height="157.55797506988307" width="395.52"><g id="SvgjsG1075"><svg viewBox="0 0 395.52 157.55797506988307" height="157.55797506988307" width="395.52" id="SvgjsSvg1074"><g><rect width="395.52" height="115.4122179665532" fill="black" stroke-width="9.018103199999999" stroke="#ffffff" data-stroke-palette-color="tertiary"></rect><rect width="395.52" height="42.14575710332988" y="115.4122179665532" fill="black"></rect></g><g><svg viewBox="0 0 395.52 115.4122179665532" height="115.4122179665532" width="395.52"><g transform="matrix(1,0,0,1,23.607599999999998,23.607599999999998)"><svg width="348.3048" viewBox="2.13 -32.5 168.91 33.08" height="68.1970179665532" data-palette-color="url(#2e67a72b-df5e-468c-900e-6c9bfe8c15f0)"></svg></g></svg></g></svg></g></svg></g><g><svg viewBox="0 0 235.06739742435502 217.74512154657842" height="217.74512154657842" width="235.06739742435502"><g><svg xmlns="http://www.w3.org/2000/svg" xmlns:xlink="http://www.w3.org/1999/xlink" version="1.1" x="0" y="0" viewBox="2.142 5.669 95.71583534677731 88.66247055048619" enable-background="new 0 0 100 100" xml:space="preserve" height="217.74512154657842" width="235.06739742435502" class="icon-icon-0" data-fill-palette-color="accent" id="SvgjsSvg1073"><g fill="white"><path fill="white" d="M24.039 5.669C18.492 13.357 2.142 18.904 2.142 18.904V27.322L8.2 31.142V22.587L29.505 9.14z"></path><path fill="white" d="M33.171 65.943S33.755 56.503 29.083 51.831C29.084 51.832 26.65 61.077 33.171 65.943"></path><path fill="white" d="M97.761 50.907C97.297 48.939 96.134 47.407 91.435 44.727L31.663 10.932 10.657 24.533 10.673 24.543V33.097S36.366 44.516 35.458 63.462 34.031 86.819 34.031 86.819 33.642 88.376 36.756 90.063 45.969 97.2 52.587 92.399C56.869 89.285 56.091 89.934 56.35 87.338 56.577 85.066 57.103 68.268 53.136 57.852 59.457 61.513 70.858 68.102 73.207 69.37 74.48 70.057 75.648 70.282 76.632 70.282 78.441 70.282 79.625 69.523 79.673 69.49 80.331 69.114 93.683 61.447 94.743 60.834 97.857 59.034 97.776 56.58 97.825 55.757L97.856 52.044A5.2 5.2 0 0 0 97.761 50.907M15.037 26.528L31.971 15.239 90.462 48.231C94.744 50.859 92.191 52.97 90.997 53.778L83.746 58.06C82.942 58.604 79.191 60.258 78.265 60.549 75.961 61.272 73.724 60.653 70.105 58.531z"></path><path fill="white" d="M53.771 30.129C51.997 29.203 33.82 18.71 33.82 18.71S32.338 17.867 30.933 18.807C29.526 19.749 21.12 25.214 21.12 25.214S19.368 26.528 20.974 27.501C21.906 28.066 41.168 39.504 41.168 39.504S42.422 39.94 43.675 39.231 53.382 32.659 53.382 32.659 56.009 31.297 53.771 30.129"></path><path fill="white" d="M48.157 39.67C47.576 39.799 44.754 41.538 46.111 42.7S49.85 41.904 49.85 41.904C49.075 41.711 48.157 39.67 48.157 39.67"></path><path fill="white" d="M54.663 42.968C51.957 42.924 50.807 42.253 50.807 42.253 50.4 42.453 48.134 43.727 50.149 44.669S54.663 42.968 54.663 42.968"></path><path fill="white" d="M55.281 35.108S57.8 34.913 59.137 35.823C59.137 35.823 61.571 34.537 59.866 33.233 57.408 31.354 54.995 35.424 55.281 35.108"></path><path fill="white" d="M59.963 36.139S61.265 37.136 61.391 38.225C61.391 38.225 64.762 37.035 63.954 35.324 63.146 33.612 59.988 35.377 59.963 36.139"></path><path fill="white" d="M55.399 36.047C52.48 35.948 49.765 37.741 49.996 39.585S53.356 42.072 55.229 41.928C56.639 41.819 59.633 40.476 59.279 38.498 58.885 36.294 55.399 36.047 55.399 36.047"></path><path fill="white" d="M56.453 46.057C55.307 46.036 54.252 46.756 54.354 47.478S55.688 48.434 56.422 48.366C56.975 48.315 58.142 47.769 57.991 46.995 57.823 46.133 56.453 46.057 56.453 46.057"></path><path fill="white" d="M60.564 45.848C61.117 45.797 62.284 45.251 62.133 44.477 61.965 43.614 60.595 43.538 60.595 43.538 59.449 43.517 58.394 44.237 58.496 44.959S59.83 45.916 60.564 45.848"></path><path fill="white" d="M62.638 42.442C62.74 43.164 63.972 43.398 64.706 43.33 65.259 43.279 66.426 42.733 66.275 41.959 66.107 41.096 64.737 41.02 64.737 41.02 63.591 41 62.536 41.72 62.638 42.442"></path><path fill="white" d="M68.85 40.903C69.403 40.852 70.57 40.306 70.419 39.532 70.251 38.669 68.881 38.593 68.881 38.593 67.735 38.572 66.68 39.292 66.782 40.014S68.116 40.971 68.85 40.903"></path><path fill="white" d="M60.668 48.264C59.522 48.243 58.467 48.963 58.569 49.685S59.903 50.641 60.637 50.573C61.19 50.522 62.357 49.976 62.206 49.202 62.038 48.34 60.668 48.264 60.668 48.264"></path><path fill="white" d="M64.599 48.149C65.152 48.098 66.319 47.552 66.168 46.778 66 45.916 64.63 45.84 64.63 45.84 63.484 45.819 62.429 46.539 62.531 47.261S63.865 48.217 64.599 48.149"></path><path fill="white" d="M68.743 45.722C69.296 45.671 70.463 45.125 70.312 44.351 70.144 43.488 68.774 43.412 68.774 43.412 67.628 43.391 66.573 44.111 66.675 44.833S68.008 45.79 68.743 45.722"></path><path fill="white" d="M72.704 43.298C73.257 43.247 74.424 42.701 74.273 41.927 74.105 41.064 72.735 40.988 72.735 40.988 71.589 40.967 70.534 41.687 70.636 42.409S71.97 43.366 72.704 43.298"></path><path fill="white" d="M68.723 50.358C69.276 50.307 70.443 49.761 70.292 48.987 70.124 48.124 68.754 48.048 68.754 48.048 67.608 48.027 66.553 48.747 66.655 49.469S67.989 50.426 68.723 50.358"></path><path fill="white" d="M70.871 51.768C70.973 52.49 72.205 52.724 72.939 52.656 73.492 52.605 74.659 52.059 74.508 51.285 74.34 50.422 72.97 50.346 72.97 50.346 71.824 50.326 70.769 51.046 70.871 51.768"></path><path fill="white" d="M72.685 47.934C73.238 47.883 74.405 47.337 74.254 46.563 74.086 45.7 72.716 45.624 72.716 45.624 71.57 45.603 70.515 46.323 70.617 47.045S71.951 48.002 72.685 47.934"></path><path fill="white" d="M76.738 45.508C77.291 45.457 78.458 44.911 78.307 44.137 78.139 43.274 76.769 43.198 76.769 43.198 75.623 43.177 74.568 43.897 74.67 44.619S76.004 45.576 76.738 45.508"></path><path fill="white" d="M72.503 57.378C72.605 58.1 73.837 58.334 74.571 58.266 75.124 58.215 76.291 57.669 76.14 56.895 75.972 56.032 74.602 55.956 74.602 55.956 73.456 55.936 72.401 56.656 72.503 57.378"></path><path fill="white" d="M78.658 53.713C77.512 53.692 76.457 54.412 76.559 55.134S77.893 56.09 78.627 56.022C79.18 55.971 80.347 55.425 80.196 54.651 80.028 53.789 78.658 53.713 78.658 53.713"></path><path fill="white" d="M80.699 52.526C80.801 53.248 82.033 53.482 82.767 53.414 83.32 53.363 84.487 52.817 84.336 52.043 84.168 51.18 82.798 51.104 82.798 51.104 81.652 51.083 80.597 51.804 80.699 52.526"></path><path fill="white" d="M86.731 51.08C87.284 51.029 88.451 50.483 88.3 49.709 88.132 48.846 86.762 48.77 86.762 48.77 85.616 48.749 84.561 49.469 84.663 50.191S85.997 51.148 86.731 51.08"></path><path fill="white" d="M69.975 53.535C69.212 53.018 66.458 51.265 66.458 51.265S64.573 50.177 63.649 51.15C62.858 51.982 64.219 53.254 64.476 53.34L67.25 55.092S69.176 56.622 70.218 55.579C71.042 54.755 70.724 54.042 69.975 53.535"></path><path fill="white" d="M75.124 49.712C76.033 50.755 77.075 50.2 78.007 49.679S81.526 47.406 81.526 47.406 82.765 46.678 81.86 45.85C80.979 45.044 79.725 45.488 79.133 45.878S75.422 48.25 75.422 48.25 74.474 48.967 75.124 49.712"></path></g></svg></g></svg></g></svg></g><defs><mask></mask></defs><mask><g id="SvgjsG1072"><svg viewBox="0 0 395.52 134.0655831203915" height="134.0655831203915" width="395.52"><g><svg viewBox="0 0 642.391197424355 217.74512154657842" height="134.0655831203915" width="395.52"><g transform="matrix(1,0,0,1,246.87119742435502,30.093573238347673)"><svg viewBox="0 0 395.52 157.55797506988307" height="157.55797506988307" width="395.52"><g id="SvgjsG1071"><svg viewBox="0 0 395.52 157.55797506988307" height="157.55797506988307" width="395.52" id="SvgjsSvg1070"><g><rect width="395.52" height="115.4122179665532" fill="black" stroke-width="9.018103199999999" stroke="#ffffff" data-stroke-palette-color="tertiary"></rect><rect width="395.52" height="42.14575710332988" y="115.4122179665532" fill="black"></rect></g><g><svg viewBox="0 0 395.52 115.4122179665532" height="115.4122179665532" width="395.52"><g transform="matrix(1,0,0,1,23.607599999999998,23.607599999999998)"><svg width="348.3048" viewBox="2.13 -32.5 168.91 33.08" height="68.1970179665532" data-palette-color="url(#2e67a72b-df5e-468c-900e-6c9bfe8c15f0)"><path d="M12.68 0.58L12.68 0.58Q10.38 0.58 8.46 0.2 6.55-0.18 5.05-0.73 3.55-1.28 2.55-1.83L2.55-1.83 2.13-5.95Q4.05-4.8 6.66-3.94 9.28-3.08 12.35-3.08L12.35-3.08Q16.05-3.08 17.82-4.39 19.6-5.7 19.6-8.33L19.6-8.33 19.6-8.72Q19.6-10.45 18.9-11.55 18.2-12.65 16.54-13.4 14.88-14.15 12.03-14.8L12.03-14.8Q8.43-15.65 6.26-16.81 4.1-17.98 3.14-19.73 2.18-21.48 2.18-24.08L2.18-24.08 2.18-24.3Q2.18-28.23 4.75-30.36 7.33-32.5 12.55-32.5L12.55-32.5Q15.98-32.5 18.39-31.8 20.8-31.1 22.33-30.25L22.33-30.25 22.7-26.45Q20.93-27.5 18.56-28.24 16.2-28.98 13.15-28.98L13.15-28.98Q10.73-28.98 9.22-28.4 7.73-27.83 7.05-26.75 6.38-25.68 6.38-24.15L6.38-24.15 6.38-24.05Q6.38-22.5 7.04-21.4 7.7-20.3 9.36-19.5 11.03-18.7 14.1-17.95L14.1-17.95Q17.63-17.13 19.75-16.05 21.88-14.98 22.84-13.25 23.8-11.53 23.8-8.75L23.8-8.75 23.8-8.22Q23.8-3.9 21.01-1.66 18.23 0.58 12.68 0.58ZM38.8 0.55L38.8 0.55Q33.55 0.55 30.98-2.29 28.42-5.13 28.42-10.33L28.42-10.33 28.42-14.13Q28.42-19.35 31-22.16 33.57-24.98 38.8-24.98L38.8-24.98Q40.35-24.98 41.62-24.69 42.9-24.4 43.91-23.94 44.92-23.48 45.62-22.98L45.62-22.98 45.97-19.45Q44.8-20.35 43.19-20.98 41.57-21.6 39.4-21.6L39.4-21.6Q35.9-21.6 34.19-19.66 32.47-17.73 32.47-14.03L32.47-14.03 32.47-10.43Q32.47-6.8 34.19-4.85 35.9-2.9 39.4-2.9L39.4-2.9Q41.65-2.9 43.28-3.53 44.92-4.15 46.2-5.05L46.2-5.05 45.82-1.48Q44.72-0.73 42.95-0.09 41.17 0.55 38.8 0.55ZM69.59-15.8L69.59 0 65.57 0 65.75-5.93 65.59-6.55 65.59-14.33 65.62-15.75Q65.62-18.73 64.11-20.15 62.59-21.58 59.32-21.58L59.32-21.58Q56.7-21.58 54.51-20.83 52.32-20.08 50.62-19.07L50.62-19.07 51-22.53Q51.95-23.1 53.26-23.66 54.57-24.23 56.26-24.6 57.95-24.98 59.97-24.98L59.97-24.98Q62.59-24.98 64.43-24.34 66.27-23.7 67.41-22.5 68.55-21.3 69.07-19.6 69.59-17.9 69.59-15.8L69.59-15.8ZM57.17 0.53L57.17 0.53Q53.55 0.53 51.61-1.24 49.67-3 49.67-6.28L49.67-6.28 49.67-7Q49.67-10.38 51.76-12.04 53.84-13.7 58.4-14.35L58.4-14.35 66.12-15.45 66.34-12.5 58.9-11.43Q56.09-11.03 54.9-10.06 53.7-9.1 53.7-7.23L53.7-7.23 53.7-6.83Q53.7-4.9 54.88-3.88 56.07-2.85 58.45-2.85L58.45-2.85Q60.55-2.85 62.05-3.58 63.55-4.3 64.47-5.53 65.4-6.75 65.72-8.25L65.72-8.25 66.34-5.5 65.57-5.5Q65.22-3.9 64.26-2.53 63.3-1.15 61.57-0.31 59.84 0.53 57.17 0.53ZM96.17-15.63L96.17 0 92.12 0 92.12-15.18Q92.12-17.15 91.58-18.57 91.04-20 89.83-20.79 88.62-21.58 86.52-21.58L86.52-21.58Q84.59-21.58 83.18-20.85 81.77-20.13 80.89-18.89 80.02-17.65 79.67-16.07L79.67-16.07 78.94-18.95 79.82-18.95Q80.22-20.6 81.22-21.96 82.22-23.33 83.91-24.14 85.59-24.95 88.04-24.95L88.04-24.95Q90.94-24.95 92.73-23.85 94.52-22.75 95.34-20.69 96.17-18.63 96.17-15.63L96.17-15.63ZM79.84-18.32L79.84 0 75.79 0 75.79-24.4 79.84-24.4 79.67-18.55 79.84-18.32ZM122.82-15.63L122.82 0 118.77 0 118.77-15.18Q118.77-17.15 118.23-18.57 117.69-20 116.48-20.79 115.27-21.58 113.17-21.58L113.17-21.58Q111.24-21.58 109.83-20.85 108.42-20.13 107.54-18.89 106.67-17.65 106.32-16.07L106.32-16.07 105.59-18.95 106.47-18.95Q106.87-20.6 107.87-21.96 108.87-23.33 110.55-24.14 112.24-24.95 114.69-24.95L114.69-24.95Q117.59-24.95 119.38-23.85 121.17-22.75 121.99-20.69 122.82-18.63 122.82-15.63L122.82-15.63ZM106.49-18.32L106.49 0 102.44 0 102.44-24.4 106.49-24.4 106.32-18.55 106.49-18.32ZM143.06-14.78L143.06-11.45 128.86-11.45 128.86-14.78 143.06-14.78ZM158.06-14.15L149.99 0 145.39 0 155.26-17.03 155.26-16.07 145.61-31.95 150.14-31.95 158.09-18.68 158.39-18.68 166.31-31.95 170.84-31.95 161.21-16.07 161.21-17.03 171.04 0 166.46 0 158.39-14.15 158.06-14.15Z" opacity="1" transform="matrix(1,0,0,1,0,0)" fill="black" class="wordmark-text-0" id="SvgjsPath1069"></path></svg></g></svg></g></svg></g></svg></g><g><svg viewBox="0 0 235.06739742435502 217.74512154657842" height="217.74512154657842" width="235.06739742435502"><g><svg xmlns="http://www.w3.org/2000/svg" xmlns:xlink="http://www.w3.org/1999/xlink" version="1.1" x="0" y="0" viewBox="2.142 5.669 95.71583534677731 88.66247055048619" enable-background="new 0 0 100 100" xml:space="preserve" height="217.74512154657842" width="235.06739742435502" class="icon-icon-0" data-fill-palette-color="accent" id="SvgjsSvg1068"><g fill="black"><path fill="black" d="M24.039 5.669C18.492 13.357 2.142 18.904 2.142 18.904V27.322L8.2 31.142V22.587L29.505 9.14z"></path><path fill="black" d="M33.171 65.943S33.755 56.503 29.083 51.831C29.084 51.832 26.65 61.077 33.171 65.943"></path><path fill="black" d="M97.761 50.907C97.297 48.939 96.134 47.407 91.435 44.727L31.663 10.932 10.657 24.533 10.673 24.543V33.097S36.366 44.516 35.458 63.462 34.031 86.819 34.031 86.819 33.642 88.376 36.756 90.063 45.969 97.2 52.587 92.399C56.869 89.285 56.091 89.934 56.35 87.338 56.577 85.066 57.103 68.268 53.136 57.852 59.457 61.513 70.858 68.102 73.207 69.37 74.48 70.057 75.648 70.282 76.632 70.282 78.441 70.282 79.625 69.523 79.673 69.49 80.331 69.114 93.683 61.447 94.743 60.834 97.857 59.034 97.776 56.58 97.825 55.757L97.856 52.044A5.2 5.2 0 0 0 97.761 50.907M15.037 26.528L31.971 15.239 90.462 48.231C94.744 50.859 92.191 52.97 90.997 53.778L83.746 58.06C82.942 58.604 79.191 60.258 78.265 60.549 75.961 61.272 73.724 60.653 70.105 58.531z"></path><path fill="black" d="M53.771 30.129C51.997 29.203 33.82 18.71 33.82 18.71S32.338 17.867 30.933 18.807C29.526 19.749 21.12 25.214 21.12 25.214S19.368 26.528 20.974 27.501C21.906 28.066 41.168 39.504 41.168 39.504S42.422 39.94 43.675 39.231 53.382 32.659 53.382 32.659 56.009 31.297 53.771 30.129"></path><path fill="black" d="M48.157 39.67C47.576 39.799 44.754 41.538 46.111 42.7S49.85 41.904 49.85 41.904C49.075 41.711 48.157 39.67 48.157 39.67"></path><path fill="black" d="M54.663 42.968C51.957 42.924 50.807 42.253 50.807 42.253 50.4 42.453 48.134 43.727 50.149 44.669S54.663 42.968 54.663 42.968"></path><path fill="black" d="M55.281 35.108S57.8 34.913 59.137 35.823C59.137 35.823 61.571 34.537 59.866 33.233 57.408 31.354 54.995 35.424 55.281 35.108"></path><path fill="black" d="M59.963 36.139S61.265 37.136 61.391 38.225C61.391 38.225 64.762 37.035 63.954 35.324 63.146 33.612 59.988 35.377 59.963 36.139"></path><path fill="black" d="M55.399 36.047C52.48 35.948 49.765 37.741 49.996 39.585S53.356 42.072 55.229 41.928C56.639 41.819 59.633 40.476 59.279 38.498 58.885 36.294 55.399 36.047 55.399 36.047"></path><path fill="black" d="M56.453 46.057C55.307 46.036 54.252 46.756 54.354 47.478S55.688 48.434 56.422 48.366C56.975 48.315 58.142 47.769 57.991 46.995 57.823 46.133 56.453 46.057 56.453 46.057"></path><path fill="black" d="M60.564 45.848C61.117 45.797 62.284 45.251 62.133 44.477 61.965 43.614 60.595 43.538 60.595 43.538 59.449 43.517 58.394 44.237 58.496 44.959S59.83 45.916 60.564 45.848"></path><path fill="black" d="M62.638 42.442C62.74 43.164 63.972 43.398 64.706 43.33 65.259 43.279 66.426 42.733 66.275 41.959 66.107 41.096 64.737 41.02 64.737 41.02 63.591 41 62.536 41.72 62.638 42.442"></path><path fill="black" d="M68.85 40.903C69.403 40.852 70.57 40.306 70.419 39.532 70.251 38.669 68.881 38.593 68.881 38.593 67.735 38.572 66.68 39.292 66.782 40.014S68.116 40.971 68.85 40.903"></path><path fill="black" d="M60.668 48.264C59.522 48.243 58.467 48.963 58.569 49.685S59.903 50.641 60.637 50.573C61.19 50.522 62.357 49.976 62.206 49.202 62.038 48.34 60.668 48.264 60.668 48.264"></path><path fill="black" d="M64.599 48.149C65.152 48.098 66.319 47.552 66.168 46.778 66 45.916 64.63 45.84 64.63 45.84 63.484 45.819 62.429 46.539 62.531 47.261S63.865 48.217 64.599 48.149"></path><path fill="black" d="M68.743 45.722C69.296 45.671 70.463 45.125 70.312 44.351 70.144 43.488 68.774 43.412 68.774 43.412 67.628 43.391 66.573 44.111 66.675 44.833S68.008 45.79 68.743 45.722"></path><path fill="black" d="M72.704 43.298C73.257 43.247 74.424 42.701 74.273 41.927 74.105 41.064 72.735 40.988 72.735 40.988 71.589 40.967 70.534 41.687 70.636 42.409S71.97 43.366 72.704 43.298"></path><path fill="black" d="M68.723 50.358C69.276 50.307 70.443 49.761 70.292 48.987 70.124 48.124 68.754 48.048 68.754 48.048 67.608 48.027 66.553 48.747 66.655 49.469S67.989 50.426 68.723 50.358"></path><path fill="black" d="M70.871 51.768C70.973 52.49 72.205 52.724 72.939 52.656 73.492 52.605 74.659 52.059 74.508 51.285 74.34 50.422 72.97 50.346 72.97 50.346 71.824 50.326 70.769 51.046 70.871 51.768"></path><path fill="black" d="M72.685 47.934C73.238 47.883 74.405 47.337 74.254 46.563 74.086 45.7 72.716 45.624 72.716 45.624 71.57 45.603 70.515 46.323 70.617 47.045S71.951 48.002 72.685 47.934"></path><path fill="black" d="M76.738 45.508C77.291 45.457 78.458 44.911 78.307 44.137 78.139 43.274 76.769 43.198 76.769 43.198 75.623 43.177 74.568 43.897 74.67 44.619S76.004 45.576 76.738 45.508"></path><path fill="black" d="M72.503 57.378C72.605 58.1 73.837 58.334 74.571 58.266 75.124 58.215 76.291 57.669 76.14 56.895 75.972 56.032 74.602 55.956 74.602 55.956 73.456 55.936 72.401 56.656 72.503 57.378"></path><path fill="black" d="M78.658 53.713C77.512 53.692 76.457 54.412 76.559 55.134S77.893 56.09 78.627 56.022C79.18 55.971 80.347 55.425 80.196 54.651 80.028 53.789 78.658 53.713 78.658 53.713"></path><path fill="black" d="M80.699 52.526C80.801 53.248 82.033 53.482 82.767 53.414 83.32 53.363 84.487 52.817 84.336 52.043 84.168 51.18 82.798 51.104 82.798 51.104 81.652 51.083 80.597 51.804 80.699 52.526"></path><path fill="black" d="M86.731 51.08C87.284 51.029 88.451 50.483 88.3 49.709 88.132 48.846 86.762 48.77 86.762 48.77 85.616 48.749 84.561 49.469 84.663 50.191S85.997 51.148 86.731 51.08"></path><path fill="black" d="M69.975 53.535C69.212 53.018 66.458 51.265 66.458 51.265S64.573 50.177 63.649 51.15C62.858 51.982 64.219 53.254 64.476 53.34L67.25 55.092S69.176 56.622 70.218 55.579C71.042 54.755 70.724 54.042 69.975 53.535"></path><path fill="black" d="M75.124 49.712C76.033 50.755 77.075 50.2 78.007 49.679S81.526 47.406 81.526 47.406 82.765 46.678 81.86 45.85C80.979 45.044 79.725 45.488 79.133 45.878S75.422 48.25 75.422 48.25 74.474 48.967 75.124 49.712"></path></g></svg></g></svg></g></svg></g><defs><mask></mask></defs></svg><rect width="395.52" height="134.0655831203915" fill="black" stroke="none" visibility="hidden"></rect></g></mask></svg><rect width="395.52" height="134.0655831203915" fill="black" stroke="none" visibility="hidden"></rect></g></mask><linearGradient x1="0" x2="1" y1="0.548" y2="0.55" id="bb0bcc80-69c9-486d-bd34-5bd67596e193"><stop stop-color="#ff6cab" offset="0"></stop><stop stop-color="#7366ff" offset="1"></stop></linearGradient><rect width="395.52" height="134.0655831203915" fill="#ffffff" mask="url(#f934331d-8750-4532-9581-ab57f4fb0abe)" data-fill-palette-color="accent"></rect><mask id="1f812692-bb2f-4b68-b243-69db2cd15a44"><g id="SvgjsG1094"><svg viewBox="0 0 395.52 134.0655831203915" height="134.0655831203915" width="395.52"><g><svg viewBox="0 0 642.391197424355 217.74512154657842" height="134.0655831203915" width="395.52"><g transform="matrix(1,0,0,1,246.87119742435502,30.093573238347673)"><svg viewBox="0 0 395.52 157.55797506988307" height="157.55797506988307" width="395.52"><g id="SvgjsG1093"><svg viewBox="0 0 395.52 157.55797506988307" height="157.55797506988307" width="395.52" id="SvgjsSvg1092"><g><rect width="395.52" height="115.4122179665532" fill="black" stroke-width="9.018103199999999" stroke="#ffffff" data-stroke-palette-color="tertiary"></rect><rect width="395.52" height="42.14575710332988" y="115.4122179665532" fill="white"></rect></g><g><svg viewBox="0 0 395.52 115.4122179665532" height="115.4122179665532" width="395.52"><g transform="matrix(1,0,0,1,23.607599999999998,23.607599999999998)"><svg width="348.3048" viewBox="2.13 -32.5 168.91 33.08" height="68.1970179665532" data-palette-color="url(#2e67a72b-df5e-468c-900e-6c9bfe8c15f0)"></svg></g></svg></g></svg></g></svg></g><g><svg viewBox="0 0 235.06739742435502 217.74512154657842" height="217.74512154657842" width="235.06739742435502"><g><svg xmlns="http://www.w3.org/2000/svg" xmlns:xlink="http://www.w3.org/1999/xlink" version="1.1" x="0" y="0" viewBox="2.142 5.669 95.71583534677731 88.66247055048619" enable-background="new 0 0 100 100" xml:space="preserve" height="217.74512154657842" width="235.06739742435502" class="icon-icon-0" data-fill-palette-color="accent" id="SvgjsSvg1091"></svg></g></svg></g></svg></g><defs><mask></mask></defs><mask><g id="SvgjsG1090"><svg viewBox="0 0 395.52 134.0655831203915" height="134.0655831203915" width="395.52"><g><svg viewBox="0 0 642.391197424355 217.74512154657842" height="134.0655831203915" width="395.52"><g transform="matrix(1,0,0,1,246.87119742435502,30.093573238347673)"><svg viewBox="0 0 395.52 157.55797506988307" height="157.55797506988307" width="395.52"><g id="SvgjsG1089"><svg viewBox="0 0 395.52 157.55797506988307" height="157.55797506988307" width="395.52" id="SvgjsSvg1088"><g><rect width="395.52" height="115.4122179665532" fill="black" stroke-width="9.018103199999999" stroke="#ffffff" data-stroke-palette-color="tertiary"></rect><rect width="395.52" height="42.14575710332988" y="115.4122179665532" fill="black"></rect></g><g><svg viewBox="0 0 395.52 115.4122179665532" height="115.4122179665532" width="395.52"><g transform="matrix(1,0,0,1,23.607599999999998,23.607599999999998)"><svg width="348.3048" viewBox="2.13 -32.5 168.91 33.08" height="68.1970179665532" data-palette-color="url(#2e67a72b-df5e-468c-900e-6c9bfe8c15f0)"><path d="M12.68 0.58L12.68 0.58Q10.38 0.58 8.46 0.2 6.55-0.18 5.05-0.73 3.55-1.28 2.55-1.83L2.55-1.83 2.13-5.95Q4.05-4.8 6.66-3.94 9.28-3.08 12.35-3.08L12.35-3.08Q16.05-3.08 17.82-4.39 19.6-5.7 19.6-8.33L19.6-8.33 19.6-8.72Q19.6-10.45 18.9-11.55 18.2-12.65 16.54-13.4 14.88-14.15 12.03-14.8L12.03-14.8Q8.43-15.65 6.26-16.81 4.1-17.98 3.14-19.73 2.18-21.48 2.18-24.08L2.18-24.08 2.18-24.3Q2.18-28.23 4.75-30.36 7.33-32.5 12.55-32.5L12.55-32.5Q15.98-32.5 18.39-31.8 20.8-31.1 22.33-30.25L22.33-30.25 22.7-26.45Q20.93-27.5 18.56-28.24 16.2-28.98 13.15-28.98L13.15-28.98Q10.73-28.98 9.22-28.4 7.73-27.83 7.05-26.75 6.38-25.68 6.38-24.15L6.38-24.15 6.38-24.05Q6.38-22.5 7.04-21.4 7.7-20.3 9.36-19.5 11.03-18.7 14.1-17.95L14.1-17.95Q17.63-17.13 19.75-16.05 21.88-14.98 22.84-13.25 23.8-11.53 23.8-8.75L23.8-8.75 23.8-8.22Q23.8-3.9 21.01-1.66 18.23 0.58 12.68 0.58ZM38.8 0.55L38.8 0.55Q33.55 0.55 30.98-2.29 28.42-5.13 28.42-10.33L28.42-10.33 28.42-14.13Q28.42-19.35 31-22.16 33.57-24.98 38.8-24.98L38.8-24.98Q40.35-24.98 41.62-24.69 42.9-24.4 43.91-23.94 44.92-23.48 45.62-22.98L45.62-22.98 45.97-19.45Q44.8-20.35 43.19-20.98 41.57-21.6 39.4-21.6L39.4-21.6Q35.9-21.6 34.19-19.66 32.47-17.73 32.47-14.03L32.47-14.03 32.47-10.43Q32.47-6.8 34.19-4.85 35.9-2.9 39.4-2.9L39.4-2.9Q41.65-2.9 43.28-3.53 44.92-4.15 46.2-5.05L46.2-5.05 45.82-1.48Q44.72-0.73 42.95-0.09 41.17 0.55 38.8 0.55ZM69.59-15.8L69.59 0 65.57 0 65.75-5.93 65.59-6.55 65.59-14.33 65.62-15.75Q65.62-18.73 64.11-20.15 62.59-21.58 59.32-21.58L59.32-21.58Q56.7-21.58 54.51-20.83 52.32-20.08 50.62-19.07L50.62-19.07 51-22.53Q51.95-23.1 53.26-23.66 54.57-24.23 56.26-24.6 57.95-24.98 59.97-24.98L59.97-24.98Q62.59-24.98 64.43-24.34 66.27-23.7 67.41-22.5 68.55-21.3 69.07-19.6 69.59-17.9 69.59-15.8L69.59-15.8ZM57.17 0.53L57.17 0.53Q53.55 0.53 51.61-1.24 49.67-3 49.67-6.28L49.67-6.28 49.67-7Q49.67-10.38 51.76-12.04 53.84-13.7 58.4-14.35L58.4-14.35 66.12-15.45 66.34-12.5 58.9-11.43Q56.09-11.03 54.9-10.06 53.7-9.1 53.7-7.23L53.7-7.23 53.7-6.83Q53.7-4.9 54.88-3.88 56.07-2.85 58.45-2.85L58.45-2.85Q60.55-2.85 62.05-3.58 63.55-4.3 64.47-5.53 65.4-6.75 65.72-8.25L65.72-8.25 66.34-5.5 65.57-5.5Q65.22-3.9 64.26-2.53 63.3-1.15 61.57-0.31 59.84 0.53 57.17 0.53ZM96.17-15.63L96.17 0 92.12 0 92.12-15.18Q92.12-17.15 91.58-18.57 91.04-20 89.83-20.79 88.62-21.58 86.52-21.58L86.52-21.58Q84.59-21.58 83.18-20.85 81.77-20.13 80.89-18.89 80.02-17.65 79.67-16.07L79.67-16.07 78.94-18.95 79.82-18.95Q80.22-20.6 81.22-21.96 82.22-23.33 83.91-24.14 85.59-24.95 88.04-24.95L88.04-24.95Q90.94-24.95 92.73-23.85 94.52-22.75 95.34-20.69 96.17-18.63 96.17-15.63L96.17-15.63ZM79.84-18.32L79.84 0 75.79 0 75.79-24.4 79.84-24.4 79.67-18.55 79.84-18.32ZM122.82-15.63L122.82 0 118.77 0 118.77-15.18Q118.77-17.15 118.23-18.57 117.69-20 116.48-20.79 115.27-21.58 113.17-21.58L113.17-21.58Q111.24-21.58 109.83-20.85 108.42-20.13 107.54-18.89 106.67-17.65 106.32-16.07L106.32-16.07 105.59-18.95 106.47-18.95Q106.87-20.6 107.87-21.96 108.87-23.33 110.55-24.14 112.24-24.95 114.69-24.95L114.69-24.95Q117.59-24.95 119.38-23.85 121.17-22.75 121.99-20.69 122.82-18.63 122.82-15.63L122.82-15.63ZM106.49-18.32L106.49 0 102.44 0 102.44-24.4 106.49-24.4 106.32-18.55 106.49-18.32ZM143.06-14.78L143.06-11.45 128.86-11.45 128.86-14.78 143.06-14.78ZM158.06-14.15L149.99 0 145.39 0 155.26-17.03 155.26-16.07 145.61-31.95 150.14-31.95 158.09-18.68 158.39-18.68 166.31-31.95 170.84-31.95 161.21-16.07 161.21-17.03 171.04 0 166.46 0 158.39-14.15 158.06-14.15Z" opacity="1" transform="matrix(1,0,0,1,0,0)" fill="black" class="wordmark-text-0" id="SvgjsPath1087"></path></svg></g></svg></g></svg></g></svg></g><g><svg viewBox="0 0 235.06739742435502 217.74512154657842" height="217.74512154657842" width="235.06739742435502"><g><svg xmlns="http://www.w3.org/2000/svg" xmlns:xlink="http://www.w3.org/1999/xlink" version="1.1" x="0" y="0" viewBox="2.142 5.669 95.71583534677731 88.66247055048619" enable-background="new 0 0 100 100" xml:space="preserve" height="217.74512154657842" width="235.06739742435502" class="icon-icon-0" data-fill-palette-color="accent" id="SvgjsSvg1086"><g fill="black"><path fill="black" d="M24.039 5.669C18.492 13.357 2.142 18.904 2.142 18.904V27.322L8.2 31.142V22.587L29.505 9.14z"></path><path fill="black" d="M33.171 65.943S33.755 56.503 29.083 51.831C29.084 51.832 26.65 61.077 33.171 65.943"></path><path fill="black" d="M97.761 50.907C97.297 48.939 96.134 47.407 91.435 44.727L31.663 10.932 10.657 24.533 10.673 24.543V33.097S36.366 44.516 35.458 63.462 34.031 86.819 34.031 86.819 33.642 88.376 36.756 90.063 45.969 97.2 52.587 92.399C56.869 89.285 56.091 89.934 56.35 87.338 56.577 85.066 57.103 68.268 53.136 57.852 59.457 61.513 70.858 68.102 73.207 69.37 74.48 70.057 75.648 70.282 76.632 70.282 78.441 70.282 79.625 69.523 79.673 69.49 80.331 69.114 93.683 61.447 94.743 60.834 97.857 59.034 97.776 56.58 97.825 55.757L97.856 52.044A5.2 5.2 0 0 0 97.761 50.907M15.037 26.528L31.971 15.239 90.462 48.231C94.744 50.859 92.191 52.97 90.997 53.778L83.746 58.06C82.942 58.604 79.191 60.258 78.265 60.549 75.961 61.272 73.724 60.653 70.105 58.531z"></path><path fill="black" d="M53.771 30.129C51.997 29.203 33.82 18.71 33.82 18.71S32.338 17.867 30.933 18.807C29.526 19.749 21.12 25.214 21.12 25.214S19.368 26.528 20.974 27.501C21.906 28.066 41.168 39.504 41.168 39.504S42.422 39.94 43.675 39.231 53.382 32.659 53.382 32.659 56.009 31.297 53.771 30.129"></path><path fill="black" d="M48.157 39.67C47.576 39.799 44.754 41.538 46.111 42.7S49.85 41.904 49.85 41.904C49.075 41.711 48.157 39.67 48.157 39.67"></path><path fill="black" d="M54.663 42.968C51.957 42.924 50.807 42.253 50.807 42.253 50.4 42.453 48.134 43.727 50.149 44.669S54.663 42.968 54.663 42.968"></path><path fill="black" d="M55.281 35.108S57.8 34.913 59.137 35.823C59.137 35.823 61.571 34.537 59.866 33.233 57.408 31.354 54.995 35.424 55.281 35.108"></path><path fill="black" d="M59.963 36.139S61.265 37.136 61.391 38.225C61.391 38.225 64.762 37.035 63.954 35.324 63.146 33.612 59.988 35.377 59.963 36.139"></path><path fill="black" d="M55.399 36.047C52.48 35.948 49.765 37.741 49.996 39.585S53.356 42.072 55.229 41.928C56.639 41.819 59.633 40.476 59.279 38.498 58.885 36.294 55.399 36.047 55.399 36.047"></path><path fill="black" d="M56.453 46.057C55.307 46.036 54.252 46.756 54.354 47.478S55.688 48.434 56.422 48.366C56.975 48.315 58.142 47.769 57.991 46.995 57.823 46.133 56.453 46.057 56.453 46.057"></path><path fill="black" d="M60.564 45.848C61.117 45.797 62.284 45.251 62.133 44.477 61.965 43.614 60.595 43.538 60.595 43.538 59.449 43.517 58.394 44.237 58.496 44.959S59.83 45.916 60.564 45.848"></path><path fill="black" d="M62.638 42.442C62.74 43.164 63.972 43.398 64.706 43.33 65.259 43.279 66.426 42.733 66.275 41.959 66.107 41.096 64.737 41.02 64.737 41.02 63.591 41 62.536 41.72 62.638 42.442"></path><path fill="black" d="M68.85 40.903C69.403 40.852 70.57 40.306 70.419 39.532 70.251 38.669 68.881 38.593 68.881 38.593 67.735 38.572 66.68 39.292 66.782 40.014S68.116 40.971 68.85 40.903"></path><path fill="black" d="M60.668 48.264C59.522 48.243 58.467 48.963 58.569 49.685S59.903 50.641 60.637 50.573C61.19 50.522 62.357 49.976 62.206 49.202 62.038 48.34 60.668 48.264 60.668 48.264"></path><path fill="black" d="M64.599 48.149C65.152 48.098 66.319 47.552 66.168 46.778 66 45.916 64.63 45.84 64.63 45.84 63.484 45.819 62.429 46.539 62.531 47.261S63.865 48.217 64.599 48.149"></path><path fill="black" d="M68.743 45.722C69.296 45.671 70.463 45.125 70.312 44.351 70.144 43.488 68.774 43.412 68.774 43.412 67.628 43.391 66.573 44.111 66.675 44.833S68.008 45.79 68.743 45.722"></path><path fill="black" d="M72.704 43.298C73.257 43.247 74.424 42.701 74.273 41.927 74.105 41.064 72.735 40.988 72.735 40.988 71.589 40.967 70.534 41.687 70.636 42.409S71.97 43.366 72.704 43.298"></path><path fill="black" d="M68.723 50.358C69.276 50.307 70.443 49.761 70.292 48.987 70.124 48.124 68.754 48.048 68.754 48.048 67.608 48.027 66.553 48.747 66.655 49.469S67.989 50.426 68.723 50.358"></path><path fill="black" d="M70.871 51.768C70.973 52.49 72.205 52.724 72.939 52.656 73.492 52.605 74.659 52.059 74.508 51.285 74.34 50.422 72.97 50.346 72.97 50.346 71.824 50.326 70.769 51.046 70.871 51.768"></path><path fill="black" d="M72.685 47.934C73.238 47.883 74.405 47.337 74.254 46.563 74.086 45.7 72.716 45.624 72.716 45.624 71.57 45.603 70.515 46.323 70.617 47.045S71.951 48.002 72.685 47.934"></path><path fill="black" d="M76.738 45.508C77.291 45.457 78.458 44.911 78.307 44.137 78.139 43.274 76.769 43.198 76.769 43.198 75.623 43.177 74.568 43.897 74.67 44.619S76.004 45.576 76.738 45.508"></path><path fill="black" d="M72.503 57.378C72.605 58.1 73.837 58.334 74.571 58.266 75.124 58.215 76.291 57.669 76.14 56.895 75.972 56.032 74.602 55.956 74.602 55.956 73.456 55.936 72.401 56.656 72.503 57.378"></path><path fill="black" d="M78.658 53.713C77.512 53.692 76.457 54.412 76.559 55.134S77.893 56.09 78.627 56.022C79.18 55.971 80.347 55.425 80.196 54.651 80.028 53.789 78.658 53.713 78.658 53.713"></path><path fill="black" d="M80.699 52.526C80.801 53.248 82.033 53.482 82.767 53.414 83.32 53.363 84.487 52.817 84.336 52.043 84.168 51.18 82.798 51.104 82.798 51.104 81.652 51.083 80.597 51.804 80.699 52.526"></path><path fill="black" d="M86.731 51.08C87.284 51.029 88.451 50.483 88.3 49.709 88.132 48.846 86.762 48.77 86.762 48.77 85.616 48.749 84.561 49.469 84.663 50.191S85.997 51.148 86.731 51.08"></path><path fill="black" d="M69.975 53.535C69.212 53.018 66.458 51.265 66.458 51.265S64.573 50.177 63.649 51.15C62.858 51.982 64.219 53.254 64.476 53.34L67.25 55.092S69.176 56.622 70.218 55.579C71.042 54.755 70.724 54.042 69.975 53.535"></path><path fill="black" d="M75.124 49.712C76.033 50.755 77.075 50.2 78.007 49.679S81.526 47.406 81.526 47.406 82.765 46.678 81.86 45.85C80.979 45.044 79.725 45.488 79.133 45.878S75.422 48.25 75.422 48.25 74.474 48.967 75.124 49.712"></path></g></svg></g></svg></g></svg></g><defs><mask></mask></defs></svg><rect width="395.52" height="134.0655831203915" fill="black" stroke="none" visibility="hidden"></rect></g></mask><mask><g id="SvgjsG1085"><svg viewBox="0 0 395.52 134.0655831203915" height="134.0655831203915" width="395.52"><g><svg viewBox="0 0 642.391197424355 217.74512154657842" height="134.0655831203915" width="395.52"><g transform="matrix(1,0,0,1,246.87119742435502,30.093573238347673)"><svg viewBox="0 0 395.52 157.55797506988307" height="157.55797506988307" width="395.52"><g id="SvgjsG1084"><svg viewBox="0 0 395.52 157.55797506988307" height="157.55797506988307" width="395.52" id="SvgjsSvg1083"><g><rect width="395.52" height="115.4122179665532" fill="black" stroke-width="9.018103199999999" stroke="#ffffff" data-stroke-palette-color="tertiary"></rect><rect width="395.52" height="42.14575710332988" y="115.4122179665532" fill="black"></rect></g><g><svg viewBox="0 0 395.52 115.4122179665532" height="115.4122179665532" width="395.52"><g transform="matrix(1,0,0,1,23.607599999999998,23.607599999999998)"><svg width="348.3048" viewBox="2.13 -32.5 168.91 33.08" height="68.1970179665532" data-palette-color="url(#2e67a72b-df5e-468c-900e-6c9bfe8c15f0)"></svg></g></svg></g></svg></g></svg></g><g><svg viewBox="0 0 235.06739742435502 217.74512154657842" height="217.74512154657842" width="235.06739742435502"><g><svg xmlns="http://www.w3.org/2000/svg" xmlns:xlink="http://www.w3.org/1999/xlink" version="1.1" x="0" y="0" viewBox="2.142 5.669 95.71583534677731 88.66247055048619" enable-background="new 0 0 100 100" xml:space="preserve" height="217.74512154657842" width="235.06739742435502" class="icon-icon-0" data-fill-palette-color="accent" id="SvgjsSvg1082"><g fill="black"><path fill="black" d="M24.039 5.669C18.492 13.357 2.142 18.904 2.142 18.904V27.322L8.2 31.142V22.587L29.505 9.14z"></path><path fill="black" d="M33.171 65.943S33.755 56.503 29.083 51.831C29.084 51.832 26.65 61.077 33.171 65.943"></path><path fill="black" d="M97.761 50.907C97.297 48.939 96.134 47.407 91.435 44.727L31.663 10.932 10.657 24.533 10.673 24.543V33.097S36.366 44.516 35.458 63.462 34.031 86.819 34.031 86.819 33.642 88.376 36.756 90.063 45.969 97.2 52.587 92.399C56.869 89.285 56.091 89.934 56.35 87.338 56.577 85.066 57.103 68.268 53.136 57.852 59.457 61.513 70.858 68.102 73.207 69.37 74.48 70.057 75.648 70.282 76.632 70.282 78.441 70.282 79.625 69.523 79.673 69.49 80.331 69.114 93.683 61.447 94.743 60.834 97.857 59.034 97.776 56.58 97.825 55.757L97.856 52.044A5.2 5.2 0 0 0 97.761 50.907M15.037 26.528L31.971 15.239 90.462 48.231C94.744 50.859 92.191 52.97 90.997 53.778L83.746 58.06C82.942 58.604 79.191 60.258 78.265 60.549 75.961 61.272 73.724 60.653 70.105 58.531z"></path><path fill="black" d="M53.771 30.129C51.997 29.203 33.82 18.71 33.82 18.71S32.338 17.867 30.933 18.807C29.526 19.749 21.12 25.214 21.12 25.214S19.368 26.528 20.974 27.501C21.906 28.066 41.168 39.504 41.168 39.504S42.422 39.94 43.675 39.231 53.382 32.659 53.382 32.659 56.009 31.297 53.771 30.129"></path><path fill="black" d="M48.157 39.67C47.576 39.799 44.754 41.538 46.111 42.7S49.85 41.904 49.85 41.904C49.075 41.711 48.157 39.67 48.157 39.67"></path><path fill="black" d="M54.663 42.968C51.957 42.924 50.807 42.253 50.807 42.253 50.4 42.453 48.134 43.727 50.149 44.669S54.663 42.968 54.663 42.968"></path><path fill="black" d="M55.281 35.108S57.8 34.913 59.137 35.823C59.137 35.823 61.571 34.537 59.866 33.233 57.408 31.354 54.995 35.424 55.281 35.108"></path><path fill="black" d="M59.963 36.139S61.265 37.136 61.391 38.225C61.391 38.225 64.762 37.035 63.954 35.324 63.146 33.612 59.988 35.377 59.963 36.139"></path><path fill="black" d="M55.399 36.047C52.48 35.948 49.765 37.741 49.996 39.585S53.356 42.072 55.229 41.928C56.639 41.819 59.633 40.476 59.279 38.498 58.885 36.294 55.399 36.047 55.399 36.047"></path><path fill="black" d="M56.453 46.057C55.307 46.036 54.252 46.756 54.354 47.478S55.688 48.434 56.422 48.366C56.975 48.315 58.142 47.769 57.991 46.995 57.823 46.133 56.453 46.057 56.453 46.057"></path><path fill="black" d="M60.564 45.848C61.117 45.797 62.284 45.251 62.133 44.477 61.965 43.614 60.595 43.538 60.595 43.538 59.449 43.517 58.394 44.237 58.496 44.959S59.83 45.916 60.564 45.848"></path><path fill="black" d="M62.638 42.442C62.74 43.164 63.972 43.398 64.706 43.33 65.259 43.279 66.426 42.733 66.275 41.959 66.107 41.096 64.737 41.02 64.737 41.02 63.591 41 62.536 41.72 62.638 42.442"></path><path fill="black" d="M68.85 40.903C69.403 40.852 70.57 40.306 70.419 39.532 70.251 38.669 68.881 38.593 68.881 38.593 67.735 38.572 66.68 39.292 66.782 40.014S68.116 40.971 68.85 40.903"></path><path fill="black" d="M60.668 48.264C59.522 48.243 58.467 48.963 58.569 49.685S59.903 50.641 60.637 50.573C61.19 50.522 62.357 49.976 62.206 49.202 62.038 48.34 60.668 48.264 60.668 48.264"></path><path fill="black" d="M64.599 48.149C65.152 48.098 66.319 47.552 66.168 46.778 66 45.916 64.63 45.84 64.63 45.84 63.484 45.819 62.429 46.539 62.531 47.261S63.865 48.217 64.599 48.149"></path><path fill="black" d="M68.743 45.722C69.296 45.671 70.463 45.125 70.312 44.351 70.144 43.488 68.774 43.412 68.774 43.412 67.628 43.391 66.573 44.111 66.675 44.833S68.008 45.79 68.743 45.722"></path><path fill="black" d="M72.704 43.298C73.257 43.247 74.424 42.701 74.273 41.927 74.105 41.064 72.735 40.988 72.735 40.988 71.589 40.967 70.534 41.687 70.636 42.409S71.97 43.366 72.704 43.298"></path><path fill="black" d="M68.723 50.358C69.276 50.307 70.443 49.761 70.292 48.987 70.124 48.124 68.754 48.048 68.754 48.048 67.608 48.027 66.553 48.747 66.655 49.469S67.989 50.426 68.723 50.358"></path><path fill="black" d="M70.871 51.768C70.973 52.49 72.205 52.724 72.939 52.656 73.492 52.605 74.659 52.059 74.508 51.285 74.34 50.422 72.97 50.346 72.97 50.346 71.824 50.326 70.769 51.046 70.871 51.768"></path><path fill="black" d="M72.685 47.934C73.238 47.883 74.405 47.337 74.254 46.563 74.086 45.7 72.716 45.624 72.716 45.624 71.57 45.603 70.515 46.323 70.617 47.045S71.951 48.002 72.685 47.934"></path><path fill="black" d="M76.738 45.508C77.291 45.457 78.458 44.911 78.307 44.137 78.139 43.274 76.769 43.198 76.769 43.198 75.623 43.177 74.568 43.897 74.67 44.619S76.004 45.576 76.738 45.508"></path><path fill="black" d="M72.503 57.378C72.605 58.1 73.837 58.334 74.571 58.266 75.124 58.215 76.291 57.669 76.14 56.895 75.972 56.032 74.602 55.956 74.602 55.956 73.456 55.936 72.401 56.656 72.503 57.378"></path><path fill="black" d="M78.658 53.713C77.512 53.692 76.457 54.412 76.559 55.134S77.893 56.09 78.627 56.022C79.18 55.971 80.347 55.425 80.196 54.651 80.028 53.789 78.658 53.713 78.658 53.713"></path><path fill="black" d="M80.699 52.526C80.801 53.248 82.033 53.482 82.767 53.414 83.32 53.363 84.487 52.817 84.336 52.043 84.168 51.18 82.798 51.104 82.798 51.104 81.652 51.083 80.597 51.804 80.699 52.526"></path><path fill="black" d="M86.731 51.08C87.284 51.029 88.451 50.483 88.3 49.709 88.132 48.846 86.762 48.77 86.762 48.77 85.616 48.749 84.561 49.469 84.663 50.191S85.997 51.148 86.731 51.08"></path><path fill="black" d="M69.975 53.535C69.212 53.018 66.458 51.265 66.458 51.265S64.573 50.177 63.649 51.15C62.858 51.982 64.219 53.254 64.476 53.34L67.25 55.092S69.176 56.622 70.218 55.579C71.042 54.755 70.724 54.042 69.975 53.535"></path><path fill="black" d="M75.124 49.712C76.033 50.755 77.075 50.2 78.007 49.679S81.526 47.406 81.526 47.406 82.765 46.678 81.86 45.85C80.979 45.044 79.725 45.488 79.133 45.878S75.422 48.25 75.422 48.25 74.474 48.967 75.124 49.712"></path></g></svg></g></svg></g></svg></g><defs><mask></mask></defs><mask><g id="SvgjsG1081"><svg viewBox="0 0 395.52 134.0655831203915" height="134.0655831203915" width="395.52"><g><svg viewBox="0 0 642.391197424355 217.74512154657842" height="134.0655831203915" width="395.52"><g transform="matrix(1,0,0,1,246.87119742435502,30.093573238347673)"><svg viewBox="0 0 395.52 157.55797506988307" height="157.55797506988307" width="395.52"><g id="SvgjsG1080"><svg viewBox="0 0 395.52 157.55797506988307" height="157.55797506988307" width="395.52" id="SvgjsSvg1079"><g><rect width="395.52" height="115.4122179665532" fill="black" stroke-width="9.018103199999999" stroke="#ffffff" data-stroke-palette-color="tertiary"></rect><rect width="395.52" height="42.14575710332988" y="115.4122179665532" fill="black"></rect></g><g><svg viewBox="0 0 395.52 115.4122179665532" height="115.4122179665532" width="395.52"><g transform="matrix(1,0,0,1,23.607599999999998,23.607599999999998)"><svg width="348.3048" viewBox="2.13 -32.5 168.91 33.08" height="68.1970179665532" data-palette-color="url(#2e67a72b-df5e-468c-900e-6c9bfe8c15f0)"><path d="M12.68 0.58L12.68 0.58Q10.38 0.58 8.46 0.2 6.55-0.18 5.05-0.73 3.55-1.28 2.55-1.83L2.55-1.83 2.13-5.95Q4.05-4.8 6.66-3.94 9.28-3.08 12.35-3.08L12.35-3.08Q16.05-3.08 17.82-4.39 19.6-5.7 19.6-8.33L19.6-8.33 19.6-8.72Q19.6-10.45 18.9-11.55 18.2-12.65 16.54-13.4 14.88-14.15 12.03-14.8L12.03-14.8Q8.43-15.65 6.26-16.81 4.1-17.98 3.14-19.73 2.18-21.48 2.18-24.08L2.18-24.08 2.18-24.3Q2.18-28.23 4.75-30.36 7.33-32.5 12.55-32.5L12.55-32.5Q15.98-32.5 18.39-31.8 20.8-31.1 22.33-30.25L22.33-30.25 22.7-26.45Q20.93-27.5 18.56-28.24 16.2-28.98 13.15-28.98L13.15-28.98Q10.73-28.98 9.22-28.4 7.73-27.83 7.05-26.75 6.38-25.68 6.38-24.15L6.38-24.15 6.38-24.05Q6.38-22.5 7.04-21.4 7.7-20.3 9.36-19.5 11.03-18.7 14.1-17.95L14.1-17.95Q17.63-17.13 19.75-16.05 21.88-14.98 22.84-13.25 23.8-11.53 23.8-8.75L23.8-8.75 23.8-8.22Q23.8-3.9 21.01-1.66 18.23 0.58 12.68 0.58ZM38.8 0.55L38.8 0.55Q33.55 0.55 30.98-2.29 28.42-5.13 28.42-10.33L28.42-10.33 28.42-14.13Q28.42-19.35 31-22.16 33.57-24.98 38.8-24.98L38.8-24.98Q40.35-24.98 41.62-24.69 42.9-24.4 43.91-23.94 44.92-23.48 45.62-22.98L45.62-22.98 45.97-19.45Q44.8-20.35 43.19-20.98 41.57-21.6 39.4-21.6L39.4-21.6Q35.9-21.6 34.19-19.66 32.47-17.73 32.47-14.03L32.47-14.03 32.47-10.43Q32.47-6.8 34.19-4.85 35.9-2.9 39.4-2.9L39.4-2.9Q41.65-2.9 43.28-3.53 44.92-4.15 46.2-5.05L46.2-5.05 45.82-1.48Q44.72-0.73 42.95-0.09 41.17 0.55 38.8 0.55ZM69.59-15.8L69.59 0 65.57 0 65.75-5.93 65.59-6.55 65.59-14.33 65.62-15.75Q65.62-18.73 64.11-20.15 62.59-21.58 59.32-21.58L59.32-21.58Q56.7-21.58 54.51-20.83 52.32-20.08 50.62-19.07L50.62-19.07 51-22.53Q51.95-23.1 53.26-23.66 54.57-24.23 56.26-24.6 57.95-24.98 59.97-24.98L59.97-24.98Q62.59-24.98 64.43-24.34 66.27-23.7 67.41-22.5 68.55-21.3 69.07-19.6 69.59-17.9 69.59-15.8L69.59-15.8ZM57.17 0.53L57.17 0.53Q53.55 0.53 51.61-1.24 49.67-3 49.67-6.28L49.67-6.28 49.67-7Q49.67-10.38 51.76-12.04 53.84-13.7 58.4-14.35L58.4-14.35 66.12-15.45 66.34-12.5 58.9-11.43Q56.09-11.03 54.9-10.06 53.7-9.1 53.7-7.23L53.7-7.23 53.7-6.83Q53.7-4.9 54.88-3.88 56.07-2.85 58.45-2.85L58.45-2.85Q60.55-2.85 62.05-3.58 63.55-4.3 64.47-5.53 65.4-6.75 65.72-8.25L65.72-8.25 66.34-5.5 65.57-5.5Q65.22-3.9 64.26-2.53 63.3-1.15 61.57-0.31 59.84 0.53 57.17 0.53ZM96.17-15.63L96.17 0 92.12 0 92.12-15.18Q92.12-17.15 91.58-18.57 91.04-20 89.83-20.79 88.62-21.58 86.52-21.58L86.52-21.58Q84.59-21.58 83.18-20.85 81.77-20.13 80.89-18.89 80.02-17.65 79.67-16.07L79.67-16.07 78.94-18.95 79.82-18.95Q80.22-20.6 81.22-21.96 82.22-23.33 83.91-24.14 85.59-24.95 88.04-24.95L88.04-24.95Q90.94-24.95 92.73-23.85 94.52-22.75 95.34-20.69 96.17-18.63 96.17-15.63L96.17-15.63ZM79.84-18.32L79.84 0 75.79 0 75.79-24.4 79.84-24.4 79.67-18.55 79.84-18.32ZM122.82-15.63L122.82 0 118.77 0 118.77-15.18Q118.77-17.15 118.23-18.57 117.69-20 116.48-20.79 115.27-21.58 113.17-21.58L113.17-21.58Q111.24-21.58 109.83-20.85 108.42-20.13 107.54-18.89 106.67-17.65 106.32-16.07L106.32-16.07 105.59-18.95 106.47-18.95Q106.87-20.6 107.87-21.96 108.87-23.33 110.55-24.14 112.24-24.95 114.69-24.95L114.69-24.95Q117.59-24.95 119.38-23.85 121.17-22.75 121.99-20.69 122.82-18.63 122.82-15.63L122.82-15.63ZM106.49-18.32L106.49 0 102.44 0 102.44-24.4 106.49-24.4 106.32-18.55 106.49-18.32ZM143.06-14.78L143.06-11.45 128.86-11.45 128.86-14.78 143.06-14.78ZM158.06-14.15L149.99 0 145.39 0 155.26-17.03 155.26-16.07 145.61-31.95 150.14-31.95 158.09-18.68 158.39-18.68 166.31-31.95 170.84-31.95 161.21-16.07 161.21-17.03 171.04 0 166.46 0 158.39-14.15 158.06-14.15Z" opacity="1" transform="matrix(1,0,0,1,0,0)" fill="black" class="wordmark-text-0" id="SvgjsPath1078"></path></svg></g></svg></g></svg></g></svg></g><g><svg viewBox="0 0 235.06739742435502 217.74512154657842" height="217.74512154657842" width="235.06739742435502"><g><svg xmlns="http://www.w3.org/2000/svg" xmlns:xlink="http://www.w3.org/1999/xlink" version="1.1" x="0" y="0" viewBox="2.142 5.669 95.71583534677731 88.66247055048619" enable-background="new 0 0 100 100" xml:space="preserve" height="217.74512154657842" width="235.06739742435502" class="icon-icon-0" data-fill-palette-color="accent" id="SvgjsSvg1077"><g fill="black"><path fill="black" d="M24.039 5.669C18.492 13.357 2.142 18.904 2.142 18.904V27.322L8.2 31.142V22.587L29.505 9.14z"></path><path fill="black" d="M33.171 65.943S33.755 56.503 29.083 51.831C29.084 51.832 26.65 61.077 33.171 65.943"></path><path fill="black" d="M97.761 50.907C97.297 48.939 96.134 47.407 91.435 44.727L31.663 10.932 10.657 24.533 10.673 24.543V33.097S36.366 44.516 35.458 63.462 34.031 86.819 34.031 86.819 33.642 88.376 36.756 90.063 45.969 97.2 52.587 92.399C56.869 89.285 56.091 89.934 56.35 87.338 56.577 85.066 57.103 68.268 53.136 57.852 59.457 61.513 70.858 68.102 73.207 69.37 74.48 70.057 75.648 70.282 76.632 70.282 78.441 70.282 79.625 69.523 79.673 69.49 80.331 69.114 93.683 61.447 94.743 60.834 97.857 59.034 97.776 56.58 97.825 55.757L97.856 52.044A5.2 5.2 0 0 0 97.761 50.907M15.037 26.528L31.971 15.239 90.462 48.231C94.744 50.859 92.191 52.97 90.997 53.778L83.746 58.06C82.942 58.604 79.191 60.258 78.265 60.549 75.961 61.272 73.724 60.653 70.105 58.531z"></path><path fill="black" d="M53.771 30.129C51.997 29.203 33.82 18.71 33.82 18.71S32.338 17.867 30.933 18.807C29.526 19.749 21.12 25.214 21.12 25.214S19.368 26.528 20.974 27.501C21.906 28.066 41.168 39.504 41.168 39.504S42.422 39.94 43.675 39.231 53.382 32.659 53.382 32.659 56.009 31.297 53.771 30.129"></path><path fill="black" d="M48.157 39.67C47.576 39.799 44.754 41.538 46.111 42.7S49.85 41.904 49.85 41.904C49.075 41.711 48.157 39.67 48.157 39.67"></path><path fill="black" d="M54.663 42.968C51.957 42.924 50.807 42.253 50.807 42.253 50.4 42.453 48.134 43.727 50.149 44.669S54.663 42.968 54.663 42.968"></path><path fill="black" d="M55.281 35.108S57.8 34.913 59.137 35.823C59.137 35.823 61.571 34.537 59.866 33.233 57.408 31.354 54.995 35.424 55.281 35.108"></path><path fill="black" d="M59.963 36.139S61.265 37.136 61.391 38.225C61.391 38.225 64.762 37.035 63.954 35.324 63.146 33.612 59.988 35.377 59.963 36.139"></path><path fill="black" d="M55.399 36.047C52.48 35.948 49.765 37.741 49.996 39.585S53.356 42.072 55.229 41.928C56.639 41.819 59.633 40.476 59.279 38.498 58.885 36.294 55.399 36.047 55.399 36.047"></path><path fill="black" d="M56.453 46.057C55.307 46.036 54.252 46.756 54.354 47.478S55.688 48.434 56.422 48.366C56.975 48.315 58.142 47.769 57.991 46.995 57.823 46.133 56.453 46.057 56.453 46.057"></path><path fill="black" d="M60.564 45.848C61.117 45.797 62.284 45.251 62.133 44.477 61.965 43.614 60.595 43.538 60.595 43.538 59.449 43.517 58.394 44.237 58.496 44.959S59.83 45.916 60.564 45.848"></path><path fill="black" d="M62.638 42.442C62.74 43.164 63.972 43.398 64.706 43.33 65.259 43.279 66.426 42.733 66.275 41.959 66.107 41.096 64.737 41.02 64.737 41.02 63.591 41 62.536 41.72 62.638 42.442"></path><path fill="black" d="M68.85 40.903C69.403 40.852 70.57 40.306 70.419 39.532 70.251 38.669 68.881 38.593 68.881 38.593 67.735 38.572 66.68 39.292 66.782 40.014S68.116 40.971 68.85 40.903"></path><path fill="black" d="M60.668 48.264C59.522 48.243 58.467 48.963 58.569 49.685S59.903 50.641 60.637 50.573C61.19 50.522 62.357 49.976 62.206 49.202 62.038 48.34 60.668 48.264 60.668 48.264"></path><path fill="black" d="M64.599 48.149C65.152 48.098 66.319 47.552 66.168 46.778 66 45.916 64.63 45.84 64.63 45.84 63.484 45.819 62.429 46.539 62.531 47.261S63.865 48.217 64.599 48.149"></path><path fill="black" d="M68.743 45.722C69.296 45.671 70.463 45.125 70.312 44.351 70.144 43.488 68.774 43.412 68.774 43.412 67.628 43.391 66.573 44.111 66.675 44.833S68.008 45.79 68.743 45.722"></path><path fill="black" d="M72.704 43.298C73.257 43.247 74.424 42.701 74.273 41.927 74.105 41.064 72.735 40.988 72.735 40.988 71.589 40.967 70.534 41.687 70.636 42.409S71.97 43.366 72.704 43.298"></path><path fill="black" d="M68.723 50.358C69.276 50.307 70.443 49.761 70.292 48.987 70.124 48.124 68.754 48.048 68.754 48.048 67.608 48.027 66.553 48.747 66.655 49.469S67.989 50.426 68.723 50.358"></path><path fill="black" d="M70.871 51.768C70.973 52.49 72.205 52.724 72.939 52.656 73.492 52.605 74.659 52.059 74.508 51.285 74.34 50.422 72.97 50.346 72.97 50.346 71.824 50.326 70.769 51.046 70.871 51.768"></path><path fill="black" d="M72.685 47.934C73.238 47.883 74.405 47.337 74.254 46.563 74.086 45.7 72.716 45.624 72.716 45.624 71.57 45.603 70.515 46.323 70.617 47.045S71.951 48.002 72.685 47.934"></path><path fill="black" d="M76.738 45.508C77.291 45.457 78.458 44.911 78.307 44.137 78.139 43.274 76.769 43.198 76.769 43.198 75.623 43.177 74.568 43.897 74.67 44.619S76.004 45.576 76.738 45.508"></path><path fill="black" d="M72.503 57.378C72.605 58.1 73.837 58.334 74.571 58.266 75.124 58.215 76.291 57.669 76.14 56.895 75.972 56.032 74.602 55.956 74.602 55.956 73.456 55.936 72.401 56.656 72.503 57.378"></path><path fill="black" d="M78.658 53.713C77.512 53.692 76.457 54.412 76.559 55.134S77.893 56.09 78.627 56.022C79.18 55.971 80.347 55.425 80.196 54.651 80.028 53.789 78.658 53.713 78.658 53.713"></path><path fill="black" d="M80.699 52.526C80.801 53.248 82.033 53.482 82.767 53.414 83.32 53.363 84.487 52.817 84.336 52.043 84.168 51.18 82.798 51.104 82.798 51.104 81.652 51.083 80.597 51.804 80.699 52.526"></path><path fill="black" d="M86.731 51.08C87.284 51.029 88.451 50.483 88.3 49.709 88.132 48.846 86.762 48.77 86.762 48.77 85.616 48.749 84.561 49.469 84.663 50.191S85.997 51.148 86.731 51.08"></path><path fill="black" d="M69.975 53.535C69.212 53.018 66.458 51.265 66.458 51.265S64.573 50.177 63.649 51.15C62.858 51.982 64.219 53.254 64.476 53.34L67.25 55.092S69.176 56.622 70.218 55.579C71.042 54.755 70.724 54.042 69.975 53.535"></path><path fill="black" d="M75.124 49.712C76.033 50.755 77.075 50.2 78.007 49.679S81.526 47.406 81.526 47.406 82.765 46.678 81.86 45.85C80.979 45.044 79.725 45.488 79.133 45.878S75.422 48.25 75.422 48.25 74.474 48.967 75.124 49.712"></path></g></svg></g></svg></g></svg></g><defs><mask></mask></defs></svg><rect width="395.52" height="134.0655831203915" fill="black" stroke="none" visibility="hidden"></rect></g></mask></svg><rect width="395.52" height="134.0655831203915" fill="black" stroke="none" visibility="hidden"></rect></g></mask></svg><rect width="395.52" height="134.0655831203915" fill="black" stroke="none" visibility="hidden"></rect></g></mask><linearGradient x1="0" x2="1" y1="0.548" y2="0.55" id="a6232864-cda7-4be9-acb6-5a95d752cb3b"><stop stop-color="#ff6cab" offset="0"></stop><stop stop-color="#7366ff" offset="1"></stop></linearGradient></svg><rect width="395.52" height="134.0655831203915" fill="none" stroke="none" visibility="hidden"></rect></g></svg></g></svg>